<svg id="Capa_1" enable-background="new 0 0 512 512" height="512" viewBox="0 0 512 512" width="512" xmlns="http://www.w3.org/2000/svg"><g><path d="m240.911 373.72c64.911 0 117.721-52.809 117.721-117.72s-52.81-117.721-117.721-117.721-117.72 52.81-117.72 117.721 52.809 117.72 117.72 117.72zm0-220.441c56.641 0 102.721 46.08 102.721 102.721 0 56.64-46.08 102.72-102.721 102.72-56.64 0-102.72-46.08-102.72-102.72 0-56.641 46.08-102.721 102.72-102.721z"/><path d="m170.21 302.629c0 4.143 3.357 7.5 7.5 7.5s7.5-3.357 7.5-7.5v-53.258c0-4.143-3.357-7.5-7.5-7.5h-11.383c-4.143 0-7.5 3.357-7.5 7.5s3.357 7.5 7.5 7.5h3.883z"/><path d="m208.129 241.871h-11.384c-4.143 0-7.5 3.357-7.5 7.5s3.357 7.5 7.5 7.5h3.884v45.758c0 4.143 3.357 7.5 7.5 7.5s7.5-3.357 7.5-7.5v-53.258c0-4.142-3.357-7.5-7.5-7.5z"/><path d="m304.112 256.871h3.883v45.758c0 4.143 3.357 7.5 7.5 7.5s7.5-3.357 7.5-7.5v-53.258c0-4.143-3.357-7.5-7.5-7.5h-11.383c-4.143 0-7.5 3.357-7.5 7.5s3.357 7.5 7.5 7.5z"/><path d="m272.473 240.784c-12.628 0-22.901 10.273-22.901 22.9v24.63c0 12.628 10.273 22.901 22.901 22.901 12.627 0 22.9-10.273 22.9-22.901v-24.63c.001-12.626-10.273-22.9-22.9-22.9zm7.901 47.53c0 4.356-3.544 7.901-7.9 7.901s-7.901-3.545-7.901-7.901v-24.63c0-4.356 3.545-7.9 7.901-7.9s7.9 3.544 7.9 7.9z"/><path d="m233.309 271.302c4.143 0 7.5-3.357 7.5-7.5v-3.258c0-4.143-3.357-7.5-7.5-7.5s-7.5 3.357-7.5 7.5v3.258c0 4.142 3.358 7.5 7.5 7.5z"/><path d="m225.809 291.455c0 4.143 3.357 7.5 7.5 7.5s7.5-3.357 7.5-7.5v-3.257c0-4.143-3.357-7.5-7.5-7.5s-7.5 3.357-7.5 7.5z"/><path d="m201.572 222.097h78.679c7.567 0 13.725-6.157 13.725-13.725v-15.776c0-7.567-6.157-13.725-13.725-13.725h-78.679c-7.567 0-13.725 6.157-13.725 13.725v15.776c0 7.567 6.157 13.725 13.725 13.725zm1.275-28.226h76.128v13.226h-76.128z"/><path d="m250.289 327.436h-18.756c-4.143 0-7.5 3.357-7.5 7.5s3.357 7.5 7.5 7.5h18.756c4.143 0 7.5-3.357 7.5-7.5s-3.358-7.5-7.5-7.5z"/><path d="m402.352 223.893h-13.155c-1.281-5.923-2.906-11.719-4.859-17.364l11.248-6.826c9.665-5.862 12.742-18.43 6.877-28.095l-12.092-19.928c-5.863-9.664-18.428-12.74-28.095-6.877l-11.318 6.867c-1.043-1.1-2.103-2.183-3.178-3.251l-5.283-61.523c-.355-4.128-4.005-7.183-8.114-6.831-4.127.354-7.186 3.987-6.831 8.114l3.967 46.205c-25.301-18.899-56.672-30.102-90.61-30.102s-65.308 11.202-90.609 30.102l7.759-90.361c1.422-16.545 15.018-29.023 31.625-29.023h16.118v29.938c0 19.358 15.75 35.108 35.108 35.108 19.359 0 35.109-15.75 35.109-35.108v-29.938h16.118c16.607 0 30.202 12.478 31.623 29.024l1.217 14.169c.354 4.127 3.997 7.179 8.114 6.831 4.127-.354 7.186-3.987 6.831-8.114l-1.217-14.169c-2.091-24.366-22.112-42.741-46.567-42.741h-102.454c-24.457 0-44.477 18.375-46.568 42.741l-9.075 105.679c-27.681 27.5-44.846 65.572-44.846 107.58 0 17.049 2.818 33.804 8.375 49.8 1.36 3.912 5.629 5.979 9.547 4.623 3.912-1.359 5.982-5.634 4.623-9.547-5.007-14.408-7.545-29.507-7.545-44.876 0-75.386 61.33-136.716 136.716-136.716s136.716 61.33 136.716 136.716-61.331 136.716-136.717 136.716c-49.206 0-92.681-26.074-116.812-65.644-2.156-3.535-6.771-4.651-10.309-2.498-3.536 2.156-4.654 6.771-2.498 10.309 6.399 10.493 14.067 20.15 22.755 28.775l9.068 105.601c2.094 24.366 22.113 42.741 46.57 42.741h102.454c13.604 0 26.512-5.922 35.41-16.246 2.705-3.138 2.354-7.873-.784-10.577-3.138-2.705-7.874-2.353-10.577.784-6.047 7.016-14.812 11.039-24.049 11.039h-16.118v-29.938c0-19.358-15.75-35.108-35.109-35.108-19.358 0-35.108 15.75-35.108 35.108v29.938h-16.118c-16.607 0-30.203-12.478-31.623-29.024l-7.754-90.295c26.753 19.965 58.608 30.035 90.603 30.035 33.938 0 65.308-11.202 90.61-30.102l-7.238 84.29c-.354 4.127 2.704 7.76 6.831 8.114.219.019.435.027.65.027 3.852 0 7.128-2.95 7.464-6.858l8.553-99.608c1.075-1.068 2.135-2.152 3.178-3.251l11.317 6.867c9.683 5.874 22.242 2.771 28.095-6.876l12.092-19.928c5.864-9.662 2.79-22.231-6.876-28.096l-11.249-6.825c1.953-5.645 3.578-11.44 4.859-17.363h13.155c11.278 0 20.453-9.175 20.453-20.453v-23.31c0-11.277-9.175-20.451-20.453-20.451zm-141.332-208.893v29.938c0 11.088-9.021 20.108-20.109 20.108s-20.108-9.021-20.108-20.108v-29.938zm-40.218 452.062c0-11.088 9.021-20.108 20.108-20.108s20.109 9.021 20.109 20.108v29.938h-40.218v-29.938zm149.256-309.434c2.534-1.54 5.904-.78 7.489 1.834l12.092 19.928c1.56 2.57.75 5.923-1.833 7.489l-9.156 5.556c-4.835-10.434-10.819-20.23-17.793-29.224zm17.748 167.492c2.577 1.564 3.397 4.914 1.833 7.49l-12.092 19.928c-1.552 2.557-4.893 3.409-7.489 1.833l-9.2-5.583c6.974-8.994 12.958-18.79 17.792-29.224zm19.999-57.466c0 3.007-2.446 5.453-5.453 5.453h-10.695c.633-5.617.97-11.323.97-17.107s-.337-11.49-.97-17.107h10.695c3.007 0 5.453 2.446 5.453 5.452z"/></g></svg>