<svg id="Capa_1" enable-background="new 0 0 511 511" height="512" viewBox="0 0 511 511" width="512" xmlns="http://www.w3.org/2000/svg"><g><path d="m396.576 314.191c-4.143 0-7.5 3.358-7.5 7.5v40.733c0 73.654-59.922 133.576-133.576 133.576s-133.576-59.922-133.576-133.576v-148.215c0-4.142-3.357-7.5-7.5-7.5-4.142 0-7.5 3.358-7.5 7.5v148.215c0 81.925 66.651 148.576 148.576 148.576s148.576-66.651 148.576-148.576v-40.733c0-4.142-3.357-7.5-7.5-7.5z"/><path d="m255.5 0c-81.925 0-148.576 66.651-148.576 148.576v35.633c0 4.142 3.358 7.5 7.5 7.5 4.143 0 7.5-3.358 7.5-7.5v-35.633c0-71.135 55.896-129.455 126.072-133.361v53.707c-12.794 3.333-22.266 14.984-22.266 28.807v43.271c0 13.823 9.472 25.474 22.266 28.807v53.09c0 4.142 3.357 7.5 7.5 7.5s7.5-3.358 7.5-7.5v-53.09c12.794-3.333 22.266-14.984 22.266-28.807v-43.271c0-13.823-9.472-25.474-22.266-28.807v-53.708c70.18 3.902 126.08 62.223 126.08 133.361v143.115c0 4.142 3.357 7.5 7.5 7.5s7.5-3.358 7.5-7.5v-143.114c0-81.925-66.651-148.576-148.576-148.576zm14.762 97.729v43.271c0 8.142-6.624 14.766-14.766 14.766s-14.766-6.624-14.766-14.766v-43.271c0-8.142 6.624-14.766 14.766-14.766s14.766 6.624 14.766 14.766z"/></g></svg>