<svg id="Capa_1" enable-background="new 0 0 512.025 512.025" height="512" viewBox="0 0 512.025 512.025" width="512" xmlns="http://www.w3.org/2000/svg"><g><path d="m482.012 110v-20.667c0-6.893-5.607-12.5-12.5-12.5h-146.833c-6.893 0-12.5 5.607-12.5 12.5v20.667c0 6.893 5.607 12.5 12.5 12.5h146.833c6.893 0 12.5-5.607 12.5-12.5zm-15-2.5h-141.833v-15.667h141.833z"/><path d="m361.095 402.173c7.995 0 14.5-6.505 14.5-14.5v-207.673c0-7.995-6.505-14.5-14.5-14.5h-318.583c-7.995 0-14.5 6.505-14.5 14.5v207.673c0 7.995 6.505 14.5 14.5 14.5zm-318.083-221.673h317.583v206.673h-317.583z"/><path d="m429.158 304.5h38c6.893 0 12.5-5.607 12.5-12.5v-20c0-6.893-5.607-12.5-12.5-12.5h-38c-6.893 0-12.5 5.607-12.5 12.5v20c0 6.893 5.607 12.5 12.5 12.5zm2.5-30h33v15h-33z"/><path d="m493.512 0h-194.834c-10.201 0-18.5 8.299-18.5 18.5v119h-258.666c-11.855 0-21.5 9.645-21.5 21.5v38.256c0 4.143 3.357 7.5 7.5 7.5s7.5-3.357 7.5-7.5v-38.256c0-3.584 2.916-6.5 6.5-6.5h360.583c3.584 0 6.5 2.916 6.5 6.5v249.673c0 3.584-2.916 6.5-6.5 6.5-17.902 0-347.388 0-360.583 0-3.584 0-6.5-2.916-6.5-6.5v-176.417c0-4.143-3.357-7.5-7.5-7.5s-7.5 3.357-7.5 7.5v176.417c0 11.855 9.645 21.5 21.5 21.5h142.792v22.66h-53c-7.995 0-14.5 6.505-14.5 14.5v30.167c0 7.995 6.505 14.5 14.5 14.5 193.678 0 181.775.157 184.022-.322 2.463.46-3.336.322 87.067.322 4.143 0 7.5-3.357 7.5-7.5s-3.357-7.5-7.5-7.5h-75.589c0-37.065.005-28.306-.008-29.831-.078-6.913-5.076-12.729-11.605-14.046-.004-.001-.008-.002-.012-.003v-22.946h86.918c11.855 0 21.5-9.645 21.5-21.5v-165.508h93.416v250.334c0 1.93-1.57 3.5-3.5 3.5h-76.119c-4.143 0-7.5 3.357-7.5 7.5s3.357 7.5 7.5 7.5h76.119c10.201 0 18.5-8.299 18.5-18.5 0-4.746 0-471.139 0-475-.001-10.201-8.3-18.5-18.501-18.5zm-194.834 15h194.834c1.93 0 3.5 1.57 3.5 3.5v28.333h-201.834v-28.333c0-1.93 1.571-3.5 3.5-3.5zm-3.499 46.833h201.833v75.667h-114.916-.001-86.916zm108.417 120.667h63.416v15.666h-63.416zm-164.292 270.333v-22.66h40.874v22.66zm-60-22.66h45v22.66h-45zm-67.5 37.66h175.855c.007 0 .013.001.019.001h4.125v29.166h-179.999zm291.792-239.667v-15h65.916c6.893 0 12.5-5.607 12.5-12.5v-20.666c0-6.893-5.607-12.5-12.5-12.5h-65.916c0-7.208.345-10.76-1.004-15h94.42v75.666z"/></g></svg>